<mxfile><diagram id="nPgk2MrRj91C-b9_46oB" name="Page-1"><mxGraphModel dx="3534" dy="1433" grid="1" gridSize="10" guides="1" tooltips="1" connect="1" arrows="1" fold="1" page="1" pageScale="1" pageWidth="1654" pageHeight="2336" background="#ffffff" math="0" shadow="0"><root><mxCell id="0"/><mxCell id="1" parent="0"/><mxCell id="3" value="&lt;b style=&quot;font-size: 12px&quot;&gt;Genre: &lt;/b&gt;Aventure&lt;br style=&quot;font-size: 12px&quot;&gt;&lt;b style=&quot;font-size: 12px&quot;&gt;Inspiration: &lt;/b&gt;One Piece&lt;br style=&quot;font-size: 12px&quot;&gt;&lt;b style=&quot;font-size: 12px&quot;&gt;Nom:&amp;nbsp; &lt;/b&gt;Épopée céruléenne&lt;br&gt;&lt;div&gt;&lt;b&gt;Couleurs:&amp;nbsp;&lt;/b&gt;&lt;a href=&quot;https://coolors.co/007fff-3894b2-000000-ffffff-286185&quot;&gt;Coolors.co&lt;/a&gt;&lt;/div&gt;&lt;p class=&quot;MsoNormal&quot;&gt;&lt;/p&gt;" style="text;html=1;align=center;verticalAlign=middle;resizable=0;points=[];autosize=1;strokeColor=#666666;fillColor=#f5f5f5;fontSize=12;fontColor=#333333;spacing=2;" parent="1" vertex="1"><mxGeometry x="-900" y="65" width="160" height="80" as="geometry"/></mxCell><mxCell id="7" style="edgeStyle=none;html=1;exitX=0.5;exitY=1;exitDx=0;exitDy=0;entryX=0.5;entryY=0;entryDx=0;entryDy=0;fontFamily=Helvetica;fontSize=12;fontColor=#333333;fillColor=#e51400;strokeColor=#FF0000;strokeWidth=2;spacing=2;" parent="1" source="4" target="6" edge="1"><mxGeometry relative="1" as="geometry"/></mxCell><mxCell id="4" value="&lt;b style=&quot;font-size: 12px;&quot;&gt;Éveil du capitaine&lt;/b&gt;" style="rounded=1;whiteSpace=wrap;html=1;fillColor=#f5f5f5;strokeColor=#666666;fontColor=#333333;fontSize=12;spacing=2;" parent="1" vertex="1"><mxGeometry x="-860" y="185" width="90" height="40" as="geometry"/></mxCell><mxCell id="10" style="edgeStyle=none;shape=connector;rounded=1;html=1;exitX=0.5;exitY=1;exitDx=0;exitDy=0;labelBackgroundColor=default;fontFamily=Helvetica;fontSize=12;fontColor=default;endArrow=classic;strokeColor=#FF0000;fillColor=#e51400;strokeWidth=2;spacing=2;" parent="1" source="6" target="8" edge="1"><mxGeometry relative="1" as="geometry"/></mxCell><mxCell id="6" value="&lt;b style=&quot;font-size: 12px;&quot;&gt;Le départ&lt;/b&gt;" style="rounded=1;whiteSpace=wrap;html=1;fillColor=#f5f5f5;strokeColor=#666666;fontColor=#333333;fontSize=12;spacing=2;" parent="1" vertex="1"><mxGeometry x="-860" y="275" width="90" height="40" as="geometry"/></mxCell><mxCell id="102" style="edgeStyle=none;html=1;exitX=1;exitY=0.5;exitDx=0;exitDy=0;entryX=0;entryY=0.5;entryDx=0;entryDy=0;fontSize=12;strokeWidth=2;strokeColor=#FF0000;" parent="1" source="8" target="25" edge="1"><mxGeometry relative="1" as="geometry"/></mxCell><mxCell id="104" value="La navigatrice et le guerrier" style="edgeLabel;html=1;align=center;verticalAlign=middle;resizable=0;points=[];fontSize=10;fontColor=#000000;labelBackgroundColor=#FFFFFF;fontStyle=1" parent="102" vertex="1" connectable="0"><mxGeometry x="-0.0909" relative="1" as="geometry"><mxPoint as="offset"/></mxGeometry></mxCell><mxCell id="103" value="&lt;font style=&quot;font-size: 11px;&quot;&gt;La guérisseuse et le musicien&lt;/font&gt;" style="edgeStyle=none;html=1;exitX=1;exitY=0.5;exitDx=0;exitDy=0;entryX=0;entryY=0.5;entryDx=0;entryDy=0;fontSize=11;strokeColor=#FF0000;strokeWidth=2;fontColor=#000000;labelBackgroundColor=#FFFFFF;fontStyle=1" parent="1" source="8" target="26" edge="1"><mxGeometry x="-0.1159" y="-2" relative="1" as="geometry"><mxPoint as="offset"/></mxGeometry></mxCell><mxCell id="8" value="&lt;b style=&quot;font-size: 12px;&quot;&gt;Recrutement de l'équipage&lt;/b&gt;" style="rhombus;whiteSpace=wrap;html=1;rounded=1;fontFamily=Helvetica;fontSize=12;fontColor=#333333;strokeColor=#666666;fillColor=#f5f5f5;direction=south;spacing=2;" parent="1" vertex="1"><mxGeometry x="-882.5" y="365" width="135" height="100" as="geometry"/></mxCell><mxCell id="41" style="edgeStyle=none;shape=connector;rounded=1;html=1;exitX=1;exitY=0.5;exitDx=0;exitDy=0;entryX=1;entryY=0.5;entryDx=0;entryDy=0;labelBackgroundColor=default;fontFamily=Helvetica;fontSize=12;fontColor=#FFFFFF;endArrow=classic;strokeColor=#FF0000;fillColor=#e51400;strokeWidth=2;spacing=2;" parent="1" source="23" target="4" edge="1"><mxGeometry relative="1" as="geometry"><Array as="points"><mxPoint x="-410" y="1855"/><mxPoint x="-410" y="1455"/><mxPoint x="-410" y="205"/></Array></mxGeometry></mxCell><mxCell id="23" value="&lt;b style=&quot;font-size: 12px;&quot;&gt;Le trésor est retrouvé!&lt;/b&gt;" style="rounded=1;whiteSpace=wrap;html=1;fillColor=#0050ef;strokeColor=#001DBC;fontColor=#ffffff;fontSize=12;spacing=2;" parent="1" vertex="1"><mxGeometry x="-855" y="1835" width="90" height="40" as="geometry"/></mxCell><mxCell id="37" style="edgeStyle=none;shape=connector;rounded=1;html=1;exitX=1;exitY=0.5;exitDx=0;exitDy=0;entryX=0.5;entryY=0;entryDx=0;entryDy=0;labelBackgroundColor=default;fontFamily=Helvetica;fontSize=12;fontColor=#FFFFFF;endArrow=classic;strokeColor=#FF0000;fillColor=#e51400;strokeWidth=2;spacing=2;" parent="1" source="25" target="29" edge="1"><mxGeometry relative="1" as="geometry"><Array as="points"><mxPoint x="-1145" y="735"/></Array></mxGeometry></mxCell><mxCell id="107" value="L'étoile du nord" style="edgeLabel;html=1;align=center;verticalAlign=middle;resizable=0;points=[];fontSize=10;fontColor=#000000;labelBackgroundColor=#FFFFFF;fontStyle=1" parent="37" vertex="1" connectable="0"><mxGeometry x="0.3205" y="-1" relative="1" as="geometry"><mxPoint as="offset"/></mxGeometry></mxCell><mxCell id="38" value="&lt;font style=&quot;font-size: 10px;&quot;&gt;La grande ourse&lt;/font&gt;" style="edgeStyle=none;shape=connector;rounded=1;html=1;exitX=1;exitY=0.5;exitDx=0;exitDy=0;entryX=0.5;entryY=0;entryDx=0;entryDy=0;labelBackgroundColor=#FFFFFF;fontFamily=Helvetica;fontSize=10;fontColor=#000000;endArrow=classic;strokeColor=#FF0000;fillColor=#e51400;strokeWidth=2;spacing=2;fontStyle=1" parent="1" source="25" target="30" edge="1"><mxGeometry relative="1" as="geometry"><mxPoint as="offset"/></mxGeometry></mxCell><mxCell id="39" style="edgeStyle=none;shape=connector;rounded=1;html=1;exitX=1;exitY=0.5;exitDx=0;exitDy=0;entryX=0.5;entryY=0;entryDx=0;entryDy=0;labelBackgroundColor=default;fontFamily=Helvetica;fontSize=12;fontColor=#FFFFFF;endArrow=classic;strokeColor=#FF0000;fillColor=#e51400;strokeWidth=2;spacing=2;" parent="1" source="25" target="31" edge="1"><mxGeometry relative="1" as="geometry"><Array as="points"><mxPoint x="-905" y="735"/></Array></mxGeometry></mxCell><mxCell id="106" value="La petite ourse" style="edgeLabel;html=1;align=center;verticalAlign=middle;resizable=0;points=[];fontSize=10;fontColor=#000000;labelBackgroundColor=#FFFFFF;fontStyle=1" parent="39" vertex="1" connectable="0"><mxGeometry x="-0.0042" relative="1" as="geometry"><mxPoint x="15" y="8" as="offset"/></mxGeometry></mxCell><mxCell id="25" value="&lt;b style=&quot;font-size: 12px&quot;&gt;Première île et première énigme pour la navigatrice et le guerrier&lt;/b&gt;" style="rhombus;whiteSpace=wrap;html=1;rounded=1;fontFamily=Helvetica;fontSize=12;fontColor=#333333;strokeColor=#666666;fillColor=#f5f5f5;direction=south;spacing=2;" parent="1" vertex="1"><mxGeometry x="-1165" y="550" width="280" height="155" as="geometry"/></mxCell><mxCell id="95" style="edgeStyle=none;shape=connector;rounded=1;html=1;exitX=1;exitY=0.5;exitDx=0;exitDy=0;entryX=0.5;entryY=0;entryDx=0;entryDy=0;labelBackgroundColor=default;fontFamily=Helvetica;fontSize=12;fontColor=#FFFFFF;endArrow=classic;strokeColor=#FF0000;strokeWidth=2;fillColor=#e51400;spacing=2;" parent="1" source="26" target="32" edge="1"><mxGeometry relative="1" as="geometry"><Array as="points"><mxPoint x="-740" y="735"/></Array></mxGeometry></mxCell><mxCell id="96" style="edgeStyle=none;shape=connector;rounded=1;html=1;exitX=1;exitY=0.5;exitDx=0;exitDy=0;labelBackgroundColor=default;fontFamily=Helvetica;fontSize=12;fontColor=#FFFFFF;endArrow=classic;strokeColor=#FF0000;strokeWidth=2;fillColor=#e51400;spacing=2;" parent="1" source="26" target="33" edge="1"><mxGeometry relative="1" as="geometry"/></mxCell><mxCell id="98" style="edgeStyle=none;shape=connector;rounded=1;html=1;exitX=1;exitY=0.5;exitDx=0;exitDy=0;entryX=0.5;entryY=0;entryDx=0;entryDy=0;labelBackgroundColor=default;fontFamily=Helvetica;fontSize=12;fontColor=#FFFFFF;endArrow=classic;strokeColor=#FF0000;strokeWidth=2;fillColor=#e51400;spacing=2;" parent="1" source="26" target="34" edge="1"><mxGeometry relative="1" as="geometry"><Array as="points"><mxPoint x="-500" y="735"/></Array></mxGeometry></mxCell><mxCell id="26" value="&lt;b style=&quot;font-size: 12px&quot;&gt;Première île et première énigme pour la guérisseuse et le barde&lt;/b&gt;" style="rhombus;whiteSpace=wrap;html=1;rounded=1;fontFamily=Helvetica;fontSize=12;fontColor=#333333;strokeColor=#666666;fillColor=#f5f5f5;direction=south;spacing=2;" parent="1" vertex="1"><mxGeometry x="-755" y="550" width="280" height="155" as="geometry"/></mxCell><mxCell id="36" style="edgeStyle=none;shape=connector;rounded=1;html=1;exitX=0;exitY=0.5;exitDx=0;exitDy=0;entryX=0;entryY=0.5;entryDx=0;entryDy=0;labelBackgroundColor=default;fontFamily=Helvetica;fontSize=12;fontColor=#FFFFFF;endArrow=classic;strokeColor=#FF0000;fillColor=#e51400;strokeWidth=2;spacing=2;" parent="1" source="29" target="4" edge="1"><mxGeometry relative="1" as="geometry"><Array as="points"><mxPoint x="-1220" y="775"/><mxPoint x="-1220" y="205"/></Array></mxGeometry></mxCell><mxCell id="29" value="&lt;b style=&quot;font-size: 12px;&quot;&gt;&lt;font style=&quot;font-size: 12px;&quot;&gt;Vous mourrez empallés&lt;/font&gt;&lt;/b&gt;" style="rounded=1;whiteSpace=wrap;html=1;fillColor=#e51400;strokeColor=#B20000;fontColor=#ffffff;fontSize=12;spacing=2;" parent="1" vertex="1"><mxGeometry x="-1195" y="755" width="100" height="40" as="geometry"/></mxCell><mxCell id="119" style="edgeStyle=none;html=1;exitX=0.5;exitY=1;exitDx=0;exitDy=0;entryX=0;entryY=0.5;entryDx=0;entryDy=0;fontSize=10;fillColor=#e51400;strokeColor=#FC0000;strokeWidth=2;" parent="1" source="30" target="50" edge="1"><mxGeometry relative="1" as="geometry"/></mxCell><mxCell id="30" value="&lt;b style=&quot;font-size: 12px;&quot;&gt;&lt;font style=&quot;font-size: 12px;&quot;&gt;Emplacment de la deuxième île&lt;/font&gt;&lt;/b&gt;" style="rounded=1;whiteSpace=wrap;html=1;fillColor=#1ba1e2;strokeColor=#006EAF;fontColor=#ffffff;fontSize=12;spacing=2;" parent="1" vertex="1"><mxGeometry x="-1075" y="755" width="100" height="40" as="geometry"/></mxCell><mxCell id="120" style="edgeStyle=none;html=1;exitX=0.5;exitY=1;exitDx=0;exitDy=0;entryX=0;entryY=0.5;entryDx=0;entryDy=0;fontSize=10;strokeColor=#FC0000;strokeWidth=2;" parent="1" source="31" target="50" edge="1"><mxGeometry relative="1" as="geometry"/></mxCell><mxCell id="31" value="&lt;b style=&quot;font-size: 12px;&quot;&gt;&lt;font style=&quot;font-size: 12px;&quot;&gt;Vous trouvz une étrange clé&lt;/font&gt;&lt;/b&gt;" style="rounded=1;whiteSpace=wrap;html=1;fillColor=#60a917;strokeColor=#2D7600;fontColor=#ffffff;fontSize=12;spacing=2;" parent="1" vertex="1"><mxGeometry x="-955" y="755" width="100" height="40" as="geometry"/></mxCell><mxCell id="122" style="edgeStyle=none;html=1;exitX=0.5;exitY=1;exitDx=0;exitDy=0;entryX=0;entryY=0.5;entryDx=0;entryDy=0;fontSize=10;strokeColor=#FC0000;strokeWidth=2;" parent="1" source="32" target="51" edge="1"><mxGeometry relative="1" as="geometry"/></mxCell><mxCell id="32" value="&lt;b style=&quot;font-size: 12px;&quot;&gt;&lt;font style=&quot;font-size: 12px;&quot;&gt;Vous trouvz une étrange clé&lt;/font&gt;&lt;/b&gt;" style="rounded=1;whiteSpace=wrap;html=1;fillColor=#60a917;strokeColor=#2D7600;fontColor=#ffffff;fontSize=12;spacing=2;" parent="1" vertex="1"><mxGeometry x="-790" y="755" width="100" height="40" as="geometry"/></mxCell><mxCell id="121" style="edgeStyle=none;html=1;exitX=0.5;exitY=1;exitDx=0;exitDy=0;entryX=0;entryY=0.5;entryDx=0;entryDy=0;fontSize=10;strokeColor=#FC0000;strokeWidth=2;" parent="1" source="33" target="51" edge="1"><mxGeometry relative="1" as="geometry"/></mxCell><mxCell id="33" value="&lt;b style=&quot;font-size: 12px;&quot;&gt;&lt;font style=&quot;font-size: 12px;&quot;&gt;Emplacment de la deuxième île&lt;/font&gt;&lt;/b&gt;" style="rounded=1;whiteSpace=wrap;html=1;fillColor=#1ba1e2;strokeColor=#006EAF;fontColor=#ffffff;fontSize=12;spacing=2;" parent="1" vertex="1"><mxGeometry x="-670" y="755" width="100" height="40" as="geometry"/></mxCell><mxCell id="40" style="edgeStyle=none;shape=connector;rounded=1;html=1;exitX=1;exitY=0.5;exitDx=0;exitDy=0;entryX=1;entryY=0.5;entryDx=0;entryDy=0;labelBackgroundColor=default;fontFamily=Helvetica;fontSize=12;fontColor=#FFFFFF;endArrow=classic;strokeColor=#FF0000;fillColor=#e51400;strokeWidth=2;spacing=2;" parent="1" source="34" target="4" edge="1"><mxGeometry relative="1" as="geometry"><Array as="points"><mxPoint x="-410" y="775"/><mxPoint x="-410" y="205"/></Array></mxGeometry></mxCell><mxCell id="34" value="&lt;b style=&quot;font-size: 12px;&quot;&gt;&lt;font style=&quot;font-size: 12px;&quot;&gt;Vous mourrez empallés&lt;/font&gt;&lt;/b&gt;" style="rounded=1;whiteSpace=wrap;html=1;fillColor=#e51400;strokeColor=#B20000;fontColor=#ffffff;fontSize=12;spacing=2;" parent="1" vertex="1"><mxGeometry x="-550" y="755" width="100" height="40" as="geometry"/></mxCell><mxCell id="60" style="edgeStyle=none;shape=connector;rounded=1;html=1;exitX=1;exitY=0.5;exitDx=0;exitDy=0;entryX=0.5;entryY=0;entryDx=0;entryDy=0;labelBackgroundColor=default;fontFamily=Helvetica;fontSize=12;fontColor=#FFFFFF;endArrow=classic;strokeColor=#FF0000;strokeWidth=2;fillColor=#e51400;spacing=2;" parent="1" source="50" target="54" edge="1"><mxGeometry relative="1" as="geometry"><Array as="points"><mxPoint x="-1142" y="1145"/></Array></mxGeometry></mxCell><mxCell id="113" value="Déesse Hestia" style="edgeLabel;html=1;align=center;verticalAlign=middle;resizable=0;points=[];fontSize=10;fontColor=#000000;labelBackgroundColor=#FFFFFF;fontStyle=1" parent="60" vertex="1" connectable="0"><mxGeometry x="0.1288" relative="1" as="geometry"><mxPoint x="-25" y="6" as="offset"/></mxGeometry></mxCell><mxCell id="61" value="&lt;font style=&quot;font-size: 10px;&quot;&gt;Déesse Athéna&lt;/font&gt;" style="edgeStyle=none;shape=connector;rounded=1;html=1;exitX=1;exitY=0.5;exitDx=0;exitDy=0;entryX=0.5;entryY=0;entryDx=0;entryDy=0;labelBackgroundColor=#FFFFFF;fontFamily=Helvetica;fontSize=10;fontColor=#000000;endArrow=classic;strokeColor=#FF0000;strokeWidth=2;fillColor=#e51400;spacing=2;fontStyle=1" parent="1" source="50" target="55" edge="1"><mxGeometry x="0.0204" relative="1" as="geometry"><mxPoint as="offset"/></mxGeometry></mxCell><mxCell id="62" style="edgeStyle=none;shape=connector;rounded=1;html=1;exitX=1;exitY=0.5;exitDx=0;exitDy=0;entryX=0.5;entryY=0;entryDx=0;entryDy=0;labelBackgroundColor=default;fontFamily=Helvetica;fontSize=12;fontColor=#FFFFFF;endArrow=classic;strokeColor=#FF0000;strokeWidth=2;fillColor=#e51400;spacing=2;" parent="1" source="50" target="56" edge="1"><mxGeometry relative="1" as="geometry"><Array as="points"><mxPoint x="-902" y="1145"/></Array></mxGeometry></mxCell><mxCell id="112" value="Déesse Minerve" style="edgeLabel;html=1;align=center;verticalAlign=middle;resizable=0;points=[];fontSize=10;fontColor=#000000;labelBackgroundColor=#FFFFFF;fontStyle=1" parent="62" vertex="1" connectable="0"><mxGeometry x="0.0959" relative="1" as="geometry"><mxPoint x="35" y="6" as="offset"/></mxGeometry></mxCell><mxCell id="50" value="&lt;b style=&quot;font-size: 12px&quot;&gt;Seconde île et deuxième énigme pour la navigatrice et le guerrier&lt;/b&gt;" style="rhombus;whiteSpace=wrap;html=1;rounded=1;fontFamily=Helvetica;fontSize=12;fontColor=#333333;strokeColor=#666666;fillColor=#f5f5f5;direction=south;spacing=2;" parent="1" vertex="1"><mxGeometry x="-1162.5" y="960" width="280" height="155" as="geometry"/></mxCell><mxCell id="63" style="edgeStyle=none;shape=connector;rounded=1;html=1;exitX=1;exitY=0.5;exitDx=0;exitDy=0;entryX=0.5;entryY=0;entryDx=0;entryDy=0;labelBackgroundColor=default;fontFamily=Helvetica;fontSize=12;fontColor=#FFFFFF;endArrow=classic;strokeColor=#FF0000;strokeWidth=2;fillColor=#e51400;spacing=2;" parent="1" source="51" target="57" edge="1"><mxGeometry relative="1" as="geometry"><Array as="points"><mxPoint x="-737" y="1145"/></Array></mxGeometry></mxCell><mxCell id="110" value="Menthe" style="edgeLabel;html=1;align=center;verticalAlign=middle;resizable=0;points=[];fontSize=10;fontColor=#000000;labelBackgroundColor=#FFFFFF;fontStyle=1" parent="63" vertex="1" connectable="0"><mxGeometry x="0.1706" y="-2" relative="1" as="geometry"><mxPoint x="-32" y="-403" as="offset"/></mxGeometry></mxCell><mxCell id="114" value="Chanson" style="edgeLabel;html=1;align=center;verticalAlign=middle;resizable=0;points=[];fontSize=10;fontColor=#000000;labelBackgroundColor=#FFFFFF;fontStyle=1" parent="63" vertex="1" connectable="0"><mxGeometry x="0.1873" y="-2" relative="1" as="geometry"><mxPoint x="-11" y="6" as="offset"/></mxGeometry></mxCell><mxCell id="64" style="edgeStyle=none;shape=connector;rounded=1;html=1;exitX=1;exitY=0.5;exitDx=0;exitDy=0;entryX=0.5;entryY=0;entryDx=0;entryDy=0;labelBackgroundColor=default;fontFamily=Helvetica;fontSize=12;fontColor=#FFFFFF;endArrow=classic;strokeColor=#FF0000;strokeWidth=2;fillColor=#e51400;spacing=2;" parent="1" source="51" target="59" edge="1"><mxGeometry relative="1" as="geometry"><Array as="points"><mxPoint x="-497" y="1145"/></Array></mxGeometry></mxCell><mxCell id="111" value="Noix de Macadame" style="edgeLabel;html=1;align=center;verticalAlign=middle;resizable=0;points=[];fontSize=10;fontColor=#000000;labelBackgroundColor=#FFFFFF;fontStyle=1" parent="64" vertex="1" connectable="0"><mxGeometry x="0.0255" y="1" relative="1" as="geometry"><mxPoint x="15" y="-402" as="offset"/></mxGeometry></mxCell><mxCell id="115" value="Mélopée" style="edgeLabel;html=1;align=center;verticalAlign=middle;resizable=0;points=[];fontSize=10;fontColor=#000000;labelBackgroundColor=#FFFFFF;fontStyle=1" parent="64" vertex="1" connectable="0"><mxGeometry x="0.384" y="-1" relative="1" as="geometry"><mxPoint as="offset"/></mxGeometry></mxCell><mxCell id="65" value="&lt;font style=&quot;font-size: 10px&quot;&gt;Berceuse&lt;/font&gt;" style="edgeStyle=none;shape=connector;rounded=1;html=1;exitX=1;exitY=0.5;exitDx=0;exitDy=0;entryX=0.5;entryY=0;entryDx=0;entryDy=0;labelBackgroundColor=#FFFFFF;fontFamily=Helvetica;fontSize=12;fontColor=#000000;endArrow=classic;strokeColor=#FF0000;strokeWidth=2;fillColor=#e51400;spacing=2;fontStyle=1" parent="1" source="51" target="58" edge="1"><mxGeometry x="0.0204" relative="1" as="geometry"><mxPoint as="offset"/></mxGeometry></mxCell><mxCell id="108" value="Curcuma" style="edgeLabel;html=1;align=center;verticalAlign=middle;resizable=0;points=[];fontSize=10;labelBackgroundColor=#FFFFFF;fontColor=#000000;fontStyle=1" parent="65" vertex="1" connectable="0"><mxGeometry x="-0.4345" y="-1" relative="1" as="geometry"><mxPoint x="-3" y="-399" as="offset"/></mxGeometry></mxCell><mxCell id="51" value="&lt;b style=&quot;font-size: 12px&quot;&gt;Seconde île et deuxième énigme pour la guérisseuse et le barde&lt;/b&gt;" style="rhombus;whiteSpace=wrap;html=1;rounded=1;fontFamily=Helvetica;fontSize=12;fontColor=#333333;strokeColor=#666666;fillColor=#f5f5f5;direction=south;spacing=2;" parent="1" vertex="1"><mxGeometry x="-765" y="960" width="295" height="155" as="geometry"/></mxCell><mxCell id="67" style="edgeStyle=none;shape=connector;rounded=1;html=1;exitX=0;exitY=0.5;exitDx=0;exitDy=0;entryX=0;entryY=0.5;entryDx=0;entryDy=0;labelBackgroundColor=default;fontFamily=Helvetica;fontSize=12;fontColor=#FFFFFF;endArrow=classic;strokeColor=#FF0000;strokeWidth=2;fillColor=#e51400;spacing=2;" parent="1" source="54" target="4" edge="1"><mxGeometry relative="1" as="geometry"><Array as="points"><mxPoint x="-1220" y="1184"/><mxPoint x="-1220" y="205"/></Array></mxGeometry></mxCell><mxCell id="54" value="&lt;b style=&quot;font-size: 12px;&quot;&gt;&lt;font style=&quot;font-size: 12px;&quot;&gt;Vous mourrez noyés&lt;/font&gt;&lt;/b&gt;" style="rounded=1;whiteSpace=wrap;html=1;fillColor=#e51400;strokeColor=#B20000;fontColor=#ffffff;fontSize=12;spacing=2;" parent="1" vertex="1"><mxGeometry x="-1192.5" y="1164" width="100" height="40" as="geometry"/></mxCell><mxCell id="69" style="edgeStyle=none;shape=connector;rounded=1;html=1;exitX=0.5;exitY=1;exitDx=0;exitDy=0;entryX=0.5;entryY=0;entryDx=0;entryDy=0;labelBackgroundColor=default;fontFamily=Helvetica;fontSize=12;fontColor=#FFFFFF;endArrow=classic;strokeColor=#FF0000;strokeWidth=2;fillColor=#e51400;spacing=2;" parent="1" source="55" target="68" edge="1"><mxGeometry relative="1" as="geometry"/></mxCell><mxCell id="55" value="&lt;b style=&quot;font-size: 12px;&quot;&gt;&lt;font style=&quot;font-size: 12px;&quot;&gt;Emplacment de la troisième île&lt;/font&gt;&lt;/b&gt;" style="rounded=1;whiteSpace=wrap;html=1;fillColor=#1ba1e2;strokeColor=#006EAF;fontColor=#ffffff;fontSize=12;spacing=2;" parent="1" vertex="1"><mxGeometry x="-1072.5" y="1164" width="100" height="40" as="geometry"/></mxCell><mxCell id="70" style="edgeStyle=none;shape=connector;rounded=1;html=1;exitX=0.5;exitY=1;exitDx=0;exitDy=0;entryX=0.5;entryY=0;entryDx=0;entryDy=0;labelBackgroundColor=default;fontFamily=Helvetica;fontSize=12;fontColor=#FFFFFF;endArrow=classic;strokeColor=#FF0000;strokeWidth=2;fillColor=#e51400;spacing=2;" parent="1" source="56" target="68" edge="1"><mxGeometry relative="1" as="geometry"/></mxCell><mxCell id="56" value="&lt;b style=&quot;font-size: 12px;&quot;&gt;&lt;font style=&quot;font-size: 12px;&quot;&gt;Vous trouvz une étrange serrure&lt;/font&gt;&lt;/b&gt;" style="rounded=1;whiteSpace=wrap;html=1;fillColor=#60a917;strokeColor=#2D7600;fontColor=#ffffff;fontSize=12;spacing=2;" parent="1" vertex="1"><mxGeometry x="-952.5" y="1164" width="100" height="40" as="geometry"/></mxCell><mxCell id="71" style="edgeStyle=none;shape=connector;rounded=1;html=1;exitX=0.5;exitY=1;exitDx=0;exitDy=0;entryX=0.5;entryY=0;entryDx=0;entryDy=0;labelBackgroundColor=default;fontFamily=Helvetica;fontSize=12;fontColor=#FFFFFF;endArrow=classic;strokeColor=#FF0000;strokeWidth=2;fillColor=#e51400;spacing=2;" parent="1" source="57" target="68" edge="1"><mxGeometry relative="1" as="geometry"/></mxCell><mxCell id="57" value="&lt;b style=&quot;font-size: 12px;&quot;&gt;&lt;font style=&quot;font-size: 12px;&quot;&gt;Vous trouvz une étrange serrure&lt;/font&gt;&lt;/b&gt;" style="rounded=1;whiteSpace=wrap;html=1;fillColor=#60a917;strokeColor=#2D7600;fontColor=#ffffff;fontSize=12;spacing=2;" parent="1" vertex="1"><mxGeometry x="-787.5" y="1164" width="100" height="40" as="geometry"/></mxCell><mxCell id="73" style="edgeStyle=none;shape=connector;rounded=1;html=1;exitX=0.5;exitY=1;exitDx=0;exitDy=0;entryX=0.5;entryY=0;entryDx=0;entryDy=0;labelBackgroundColor=default;fontFamily=Helvetica;fontSize=12;fontColor=#FFFFFF;endArrow=classic;strokeColor=#FF0000;strokeWidth=2;fillColor=#e51400;spacing=2;" parent="1" source="58" target="68" edge="1"><mxGeometry relative="1" as="geometry"/></mxCell><mxCell id="58" value="&lt;b style=&quot;font-size: 12px;&quot;&gt;&lt;font style=&quot;font-size: 12px;&quot;&gt;Emplacment de la troisième île&lt;/font&gt;&lt;/b&gt;" style="rounded=1;whiteSpace=wrap;html=1;fillColor=#1ba1e2;strokeColor=#006EAF;fontColor=#ffffff;fontSize=12;spacing=2;" parent="1" vertex="1"><mxGeometry x="-667.5" y="1164" width="100" height="40" as="geometry"/></mxCell><mxCell id="66" style="edgeStyle=none;shape=connector;rounded=1;html=1;exitX=1;exitY=0.5;exitDx=0;exitDy=0;entryX=1;entryY=0.5;entryDx=0;entryDy=0;labelBackgroundColor=default;fontFamily=Helvetica;fontSize=12;fontColor=#FFFFFF;endArrow=classic;strokeColor=#FF0000;strokeWidth=2;fillColor=#e51400;spacing=2;" parent="1" source="59" target="4" edge="1"><mxGeometry relative="1" as="geometry"><Array as="points"><mxPoint x="-410" y="1184"/><mxPoint x="-410" y="205"/></Array></mxGeometry></mxCell><mxCell id="59" value="&lt;b style=&quot;font-size: 12px;&quot;&gt;&lt;font style=&quot;font-size: 12px;&quot;&gt;Vous mourrez noyés&lt;/font&gt;&lt;/b&gt;" style="rounded=1;whiteSpace=wrap;html=1;fillColor=#e51400;strokeColor=#B20000;fontColor=#ffffff;fontSize=12;spacing=2;" parent="1" vertex="1"><mxGeometry x="-547.5" y="1164" width="100" height="40" as="geometry"/></mxCell><mxCell id="99" style="edgeStyle=none;shape=connector;rounded=1;html=1;exitX=0.5;exitY=1;exitDx=0;exitDy=0;entryX=0;entryY=0.5;entryDx=0;entryDy=0;labelBackgroundColor=default;fontFamily=Helvetica;fontSize=12;fontColor=#FFFFFF;endArrow=classic;strokeColor=#FF0000;strokeWidth=2;fillColor=#e51400;spacing=2;" parent="1" source="68" target="76" edge="1"><mxGeometry relative="1" as="geometry"/></mxCell><mxCell id="100" style="edgeStyle=none;shape=connector;rounded=1;html=1;exitX=0.5;exitY=1;exitDx=0;exitDy=0;entryX=0;entryY=0.5;entryDx=0;entryDy=0;labelBackgroundColor=default;fontFamily=Helvetica;fontSize=12;fontColor=#FFFFFF;endArrow=classic;strokeColor=#FF0000;strokeWidth=2;fillColor=#e51400;spacing=2;" parent="1" source="68" target="84" edge="1"><mxGeometry relative="1" as="geometry"/></mxCell><mxCell id="68" value="&lt;b style=&quot;font-size: 12px&quot;&gt;Île au trésor&lt;/b&gt;" style="rounded=1;whiteSpace=wrap;html=1;fillColor=#f5f5f5;strokeColor=#666666;fontColor=#333333;fontSize=12;spacing=2;" parent="1" vertex="1"><mxGeometry x="-860" y="1310" width="90" height="40" as="geometry"/></mxCell><mxCell id="82" value="Île de Tortuga" style="edgeStyle=none;shape=connector;rounded=1;html=1;exitX=1;exitY=0.5;exitDx=0;exitDy=0;entryX=0.5;entryY=0;entryDx=0;entryDy=0;labelBackgroundColor=#FFFFFF;fontFamily=Helvetica;fontSize=10;fontColor=#000000;endArrow=classic;strokeColor=#FF0000;strokeWidth=2;fillColor=#e51400;spacing=2;fontStyle=1" parent="1" source="76" target="80" edge="1"><mxGeometry relative="1" as="geometry"><Array as="points"><mxPoint x="-905" y="1575"/></Array></mxGeometry></mxCell><mxCell id="86" style="edgeStyle=none;shape=connector;rounded=1;html=1;exitX=1;exitY=0.5;exitDx=0;exitDy=0;entryX=0.5;entryY=0;entryDx=0;entryDy=0;labelBackgroundColor=default;fontFamily=Helvetica;fontSize=12;fontColor=#FFFFFF;endArrow=classic;strokeColor=#FF0000;strokeWidth=2;fillColor=#e51400;spacing=2;" parent="1" source="76" target="85" edge="1"><mxGeometry relative="1" as="geometry"><Array as="points"><mxPoint x="-1142" y="1575"/></Array></mxGeometry></mxCell><mxCell id="116" value="Île d'Orbae" style="edgeLabel;html=1;align=center;verticalAlign=middle;resizable=0;points=[];fontColor=#000000;labelBackgroundColor=#FFFFFF;fontStyle=1;fontSize=10;" parent="86" vertex="1" connectable="0"><mxGeometry x="0.0936" y="1" relative="1" as="geometry"><mxPoint as="offset"/></mxGeometry></mxCell><mxCell id="76" value="&lt;b&gt;Énigme finale pour&lt;br&gt;&amp;nbsp;trouver le trésor&lt;/b&gt;" style="rhombus;whiteSpace=wrap;html=1;rounded=1;fontFamily=Helvetica;fontSize=12;fontColor=#333333;strokeColor=#666666;fillColor=#f5f5f5;direction=south;spacing=2;" parent="1" vertex="1"><mxGeometry x="-1100" y="1400" width="150" height="145" as="geometry"/></mxCell><mxCell id="83" style="edgeStyle=none;shape=connector;rounded=1;html=1;exitX=0.5;exitY=1;exitDx=0;exitDy=0;entryX=0.5;entryY=0;entryDx=0;entryDy=0;labelBackgroundColor=default;fontFamily=Helvetica;fontSize=12;fontColor=#FFFFFF;endArrow=classic;strokeColor=#FF0000;strokeWidth=2;fillColor=#e51400;spacing=2;" parent="1" source="80" target="23" edge="1"><mxGeometry relative="1" as="geometry"/></mxCell><mxCell id="80" value="&lt;b style=&quot;font-size: 12px;&quot;&gt;&lt;font style=&quot;font-size: 12px;&quot;&gt;Emplacment du trésor&lt;/font&gt;&lt;/b&gt;" style="rounded=1;whiteSpace=wrap;html=1;fillColor=#1ba1e2;strokeColor=#006EAF;fontColor=#ffffff;fontSize=12;spacing=2;" parent="1" vertex="1"><mxGeometry x="-955" y="1595" width="100" height="40" as="geometry"/></mxCell><mxCell id="90" style="edgeStyle=none;shape=connector;rounded=1;html=1;exitX=0.5;exitY=1;exitDx=0;exitDy=0;entryX=0.5;entryY=0;entryDx=0;entryDy=0;labelBackgroundColor=default;fontFamily=Helvetica;fontSize=12;fontColor=#FFFFFF;endArrow=classic;strokeColor=#FF0000;strokeWidth=2;fillColor=#e51400;spacing=2;" parent="1" source="81" target="23" edge="1"><mxGeometry relative="1" as="geometry"/></mxCell><mxCell id="81" value="&lt;b style=&quot;font-size: 12px;&quot;&gt;&lt;font style=&quot;font-size: 12px;&quot;&gt;Vous avez les deux objets&lt;/font&gt;&lt;/b&gt;" style="rounded=1;whiteSpace=wrap;html=1;fillColor=#1ba1e2;strokeColor=#006EAF;fontColor=#ffffff;fontSize=12;spacing=2;" parent="1" vertex="1"><mxGeometry x="-790" y="1595" width="100" height="40" as="geometry"/></mxCell><mxCell id="89" value="Oui" style="edgeStyle=none;shape=connector;rounded=1;html=1;exitX=1;exitY=0.5;exitDx=0;exitDy=0;entryX=0.5;entryY=0;entryDx=0;entryDy=0;labelBackgroundColor=#FFFFFF;fontFamily=Helvetica;fontSize=10;fontColor=#000000;endArrow=classic;strokeColor=#FF0000;strokeWidth=2;fillColor=#e51400;spacing=2;fontStyle=1" parent="1" source="84" target="81" edge="1"><mxGeometry relative="1" as="geometry"><Array as="points"><mxPoint x="-740" y="1575"/></Array></mxGeometry></mxCell><mxCell id="91" style="edgeStyle=none;shape=connector;rounded=1;html=1;exitX=1;exitY=0.5;exitDx=0;exitDy=0;entryX=0.5;entryY=0;entryDx=0;entryDy=0;labelBackgroundColor=default;fontFamily=Helvetica;fontSize=12;fontColor=#FFFFFF;endArrow=classic;strokeColor=#FF0000;strokeWidth=2;fillColor=#e51400;spacing=2;" parent="1" source="84" target="88" edge="1"><mxGeometry relative="1" as="geometry"><Array as="points"><mxPoint x="-497" y="1575"/></Array></mxGeometry></mxCell><mxCell id="117" value="Non" style="edgeLabel;html=1;align=center;verticalAlign=middle;resizable=0;points=[];fontColor=#000000;labelBackgroundColor=#FFFFFF;fontSize=10;fontStyle=1" parent="91" vertex="1" connectable="0"><mxGeometry x="0.017" y="2" relative="1" as="geometry"><mxPoint as="offset"/></mxGeometry></mxCell><mxCell id="84" value="&lt;b style=&quot;font-size: 12px&quot;&gt;Est-ce que vous&lt;br&gt;&amp;nbsp;avez les &lt;br&gt;objets?&lt;/b&gt;" style="rhombus;whiteSpace=wrap;html=1;rounded=1;fontFamily=Helvetica;fontSize=12;fontColor=#333333;strokeColor=#666666;fillColor=#f5f5f5;direction=south;spacing=2;" parent="1" vertex="1"><mxGeometry x="-687.5" y="1395" width="157.5" height="155" as="geometry"/></mxCell><mxCell id="87" style="edgeStyle=none;shape=connector;rounded=1;html=1;exitX=0;exitY=0.5;exitDx=0;exitDy=0;entryX=0;entryY=0.5;entryDx=0;entryDy=0;labelBackgroundColor=default;fontFamily=Helvetica;fontSize=12;fontColor=#FFFFFF;endArrow=classic;strokeColor=#FF0000;strokeWidth=2;fillColor=#e51400;spacing=2;" parent="1" source="85" target="4" edge="1"><mxGeometry relative="1" as="geometry"><Array as="points"><mxPoint x="-1220" y="1615"/><mxPoint x="-1220" y="205"/></Array></mxGeometry></mxCell><mxCell id="85" value="&lt;b style=&quot;font-size: 12px;&quot;&gt;&lt;font style=&quot;font-size: 12px;&quot;&gt;Vous mourrez brûlés&lt;/font&gt;&lt;/b&gt;" style="rounded=1;whiteSpace=wrap;html=1;fillColor=#e51400;strokeColor=#B20000;fontColor=#ffffff;fontSize=12;spacing=2;" parent="1" vertex="1"><mxGeometry x="-1192.5" y="1595" width="100" height="40" as="geometry"/></mxCell><mxCell id="93" value="Partie Terminée" style="edgeStyle=none;shape=connector;rounded=1;html=1;exitX=0.5;exitY=1;exitDx=0;exitDy=0;entryX=0.5;entryY=0;entryDx=0;entryDy=0;labelBackgroundColor=#FFFFFF;fontFamily=Helvetica;fontSize=10;fontColor=#000000;endArrow=classic;strokeColor=#FF0000;strokeWidth=2;fillColor=#e51400;spacing=2;fontStyle=1" parent="1" source="88" target="92" edge="1"><mxGeometry relative="1" as="geometry"/></mxCell><mxCell id="88" value="&lt;b style=&quot;font-size: 12px;&quot;&gt;&lt;font style=&quot;font-size: 12px;&quot;&gt;Il en manque un&lt;/font&gt;&lt;/b&gt;" style="rounded=1;whiteSpace=wrap;html=1;fillColor=#e51400;strokeColor=#B20000;fontColor=#ffffff;fontSize=12;spacing=2;" parent="1" vertex="1"><mxGeometry x="-547.5" y="1595" width="100" height="40" as="geometry"/></mxCell><mxCell id="94" style="edgeStyle=none;shape=connector;rounded=1;html=1;exitX=1;exitY=0.5;exitDx=0;exitDy=0;entryX=1;entryY=0.5;entryDx=0;entryDy=0;labelBackgroundColor=default;fontFamily=Helvetica;fontSize=12;fontColor=#FFFFFF;endArrow=classic;strokeColor=#FF0000;strokeWidth=2;fillColor=#e51400;spacing=2;" parent="1" source="92" target="4" edge="1"><mxGeometry relative="1" as="geometry"><Array as="points"><mxPoint x="-410" y="1740"/><mxPoint x="-410" y="205"/></Array></mxGeometry></mxCell><mxCell id="92" value="&lt;b style=&quot;font-size: 12px;&quot;&gt;&lt;font style=&quot;font-size: 12px;&quot;&gt;Partie terminé, veuiller recommencer!&lt;/font&gt;&lt;/b&gt;" style="rounded=1;whiteSpace=wrap;html=1;fontSize=12;spacing=2;" parent="1" vertex="1"><mxGeometry x="-547.5" y="1715" width="100" height="50" as="geometry"/></mxCell></root></mxGraphModel></diagram></mxfile>